# xmcd CD database file
#
# Track frame offsets:
#	150
#	18792
#	38735
#	51705
#	71150
#	84720
#	103532
#	113737
#	133022
#
# Disc length: 2213 seconds
#
# Revision: 1
# Processed by: cddbd v1.5.2PL0 Copyright (c) Steve Scherf et al.
# Submitted via: CDex 1.70beta2
#
DISCID=7908a309
DTITLE=Spliff - 85555
DYEAR=1982
DGENRE=New Wave
TTITLE0=Deja Vu
TTITLE1=Heut' Nacht
TTITLE2=Notausgang
TTITLE3=Carbonara
TTITLE4=Computer Sind Doof
TTITLE5=Kill !
TTITLE6=Duett Komplett
TTITLE7=Jerusalem
TTITLE8=Damals
EXTD=YEAR: 1982
EXTT0=
EXTT1=
EXTT2=
EXTT3=
EXTT4=
EXTT5=
EXTT6=
EXTT7=
EXTT8=
PLAYORDER=
